<mxfile host="app.diagrams.net" agent="Mozilla/5.0 (Windows NT 10.0; Win64; x64) AppleWebKit/537.36 (KHTML, like Gecko) Chrome/138.0.0.0 Safari/537.36" version="27.2.0">
  <diagram name="페이지-1" id="HVQP3z9VHFV7D3RgaTFs">
    <mxGraphModel dx="1017" dy="673" grid="1" gridSize="10" guides="1" tooltips="1" connect="1" arrows="1" fold="1" page="1" pageScale="1" pageWidth="827" pageHeight="1169" math="0" shadow="0">
      <root>
        <mxCell id="0" />
        <mxCell id="1" parent="0" />
        <mxCell id="x0KAO7lvC7ucfdSOhE5J-1" value="회원" style="rounded=0;whiteSpace=wrap;html=1;" vertex="1" parent="1">
          <mxGeometry x="240" y="120" width="120" height="60" as="geometry" />
        </mxCell>
        <mxCell id="x0KAO7lvC7ucfdSOhE5J-9" style="edgeStyle=orthogonalEdgeStyle;rounded=0;orthogonalLoop=1;jettySize=auto;html=1;exitX=0.5;exitY=0;exitDx=0;exitDy=0;entryX=0.5;entryY=1;entryDx=0;entryDy=0;" edge="1" parent="1" source="x0KAO7lvC7ucfdSOhE5J-2" target="x0KAO7lvC7ucfdSOhE5J-1">
          <mxGeometry relative="1" as="geometry">
            <mxPoint x="300" y="230" as="targetPoint" />
          </mxGeometry>
        </mxCell>
        <mxCell id="x0KAO7lvC7ucfdSOhE5J-10" value="1" style="edgeLabel;html=1;align=center;verticalAlign=middle;resizable=0;points=[];" vertex="1" connectable="0" parent="x0KAO7lvC7ucfdSOhE5J-9">
          <mxGeometry x="-0.2" y="1" relative="1" as="geometry">
            <mxPoint x="-9" y="-26" as="offset" />
          </mxGeometry>
        </mxCell>
        <mxCell id="x0KAO7lvC7ucfdSOhE5J-12" value="0..*" style="edgeLabel;html=1;align=center;verticalAlign=middle;resizable=0;points=[];" vertex="1" connectable="0" parent="x0KAO7lvC7ucfdSOhE5J-9">
          <mxGeometry x="-0.4333" y="3" relative="1" as="geometry">
            <mxPoint x="-7" y="7" as="offset" />
          </mxGeometry>
        </mxCell>
        <mxCell id="x0KAO7lvC7ucfdSOhE5J-2" value="수강" style="rounded=0;whiteSpace=wrap;html=1;" vertex="1" parent="1">
          <mxGeometry x="240" y="240" width="120" height="60" as="geometry" />
        </mxCell>
        <mxCell id="x0KAO7lvC7ucfdSOhE5J-3" value="강사" style="rounded=0;whiteSpace=wrap;html=1;" vertex="1" parent="1">
          <mxGeometry y="240" width="120" height="60" as="geometry" />
        </mxCell>
        <mxCell id="x0KAO7lvC7ucfdSOhE5J-4" value="진도" style="rounded=0;whiteSpace=wrap;html=1;" vertex="1" parent="1">
          <mxGeometry x="480" y="240" width="120" height="60" as="geometry" />
        </mxCell>
        <mxCell id="x0KAO7lvC7ucfdSOhE5J-5" value="강의" style="rounded=0;whiteSpace=wrap;html=1;" vertex="1" parent="1">
          <mxGeometry x="240" y="360" width="120" height="60" as="geometry" />
        </mxCell>
        <mxCell id="x0KAO7lvC7ucfdSOhE5J-6" value="수업" style="rounded=0;whiteSpace=wrap;html=1;" vertex="1" parent="1">
          <mxGeometry x="480" y="360" width="120" height="60" as="geometry" />
        </mxCell>
        <mxCell id="x0KAO7lvC7ucfdSOhE5J-7" value="섹션" style="rounded=0;whiteSpace=wrap;html=1;" vertex="1" parent="1">
          <mxGeometry x="480" y="480" width="120" height="60" as="geometry" />
        </mxCell>
        <mxCell id="x0KAO7lvC7ucfdSOhE5J-13" value="" style="endArrow=classic;html=1;rounded=0;exitX=0.5;exitY=1;exitDx=0;exitDy=0;entryX=0.5;entryY=0;entryDx=0;entryDy=0;" edge="1" parent="1" source="x0KAO7lvC7ucfdSOhE5J-2" target="x0KAO7lvC7ucfdSOhE5J-5">
          <mxGeometry width="50" height="50" relative="1" as="geometry">
            <mxPoint x="440" y="330" as="sourcePoint" />
            <mxPoint x="490" y="280" as="targetPoint" />
          </mxGeometry>
        </mxCell>
        <mxCell id="x0KAO7lvC7ucfdSOhE5J-14" value="0..*" style="edgeLabel;html=1;align=center;verticalAlign=middle;resizable=0;points=[];" vertex="1" connectable="0" parent="x0KAO7lvC7ucfdSOhE5J-13">
          <mxGeometry x="0.1667" y="-2" relative="1" as="geometry">
            <mxPoint x="-8" y="-25" as="offset" />
          </mxGeometry>
        </mxCell>
        <mxCell id="x0KAO7lvC7ucfdSOhE5J-15" value="1" style="edgeLabel;html=1;align=center;verticalAlign=middle;resizable=0;points=[];" vertex="1" connectable="0" parent="x0KAO7lvC7ucfdSOhE5J-13">
          <mxGeometry x="0.3333" y="-2" relative="1" as="geometry">
            <mxPoint x="-8" y="10" as="offset" />
          </mxGeometry>
        </mxCell>
        <mxCell id="x0KAO7lvC7ucfdSOhE5J-16" value="" style="endArrow=none;html=1;rounded=0;exitX=0.5;exitY=0;exitDx=0;exitDy=0;" edge="1" parent="1" source="x0KAO7lvC7ucfdSOhE5J-3">
          <mxGeometry width="50" height="50" relative="1" as="geometry">
            <mxPoint x="440" y="330" as="sourcePoint" />
            <mxPoint x="60" y="150" as="targetPoint" />
          </mxGeometry>
        </mxCell>
        <mxCell id="x0KAO7lvC7ucfdSOhE5J-19" value="0..1" style="edgeLabel;html=1;align=center;verticalAlign=middle;resizable=0;points=[];" vertex="1" connectable="0" parent="x0KAO7lvC7ucfdSOhE5J-16">
          <mxGeometry x="-0.0222" y="-1" relative="1" as="geometry">
            <mxPoint x="-15" y="34" as="offset" />
          </mxGeometry>
        </mxCell>
        <mxCell id="x0KAO7lvC7ucfdSOhE5J-17" value="" style="endArrow=none;html=1;rounded=0;entryX=0;entryY=0.5;entryDx=0;entryDy=0;" edge="1" parent="1" target="x0KAO7lvC7ucfdSOhE5J-1">
          <mxGeometry width="50" height="50" relative="1" as="geometry">
            <mxPoint x="60" y="150" as="sourcePoint" />
            <mxPoint x="490" y="280" as="targetPoint" />
          </mxGeometry>
        </mxCell>
        <mxCell id="x0KAO7lvC7ucfdSOhE5J-18" value="1" style="edgeLabel;html=1;align=center;verticalAlign=middle;resizable=0;points=[];" vertex="1" connectable="0" parent="x0KAO7lvC7ucfdSOhE5J-17">
          <mxGeometry x="0.7111" y="-1" relative="1" as="geometry">
            <mxPoint x="16" y="-11" as="offset" />
          </mxGeometry>
        </mxCell>
        <mxCell id="x0KAO7lvC7ucfdSOhE5J-20" value="" style="endArrow=none;html=1;rounded=0;entryX=0.442;entryY=1.017;entryDx=0;entryDy=0;entryPerimeter=0;" edge="1" parent="1">
          <mxGeometry width="50" height="50" relative="1" as="geometry">
            <mxPoint x="60" y="390" as="sourcePoint" />
            <mxPoint x="59.539999999999964" y="300" as="targetPoint" />
          </mxGeometry>
        </mxCell>
        <mxCell id="x0KAO7lvC7ucfdSOhE5J-21" value="1" style="edgeLabel;html=1;align=center;verticalAlign=middle;resizable=0;points=[];" vertex="1" connectable="0" parent="x0KAO7lvC7ucfdSOhE5J-20">
          <mxGeometry x="-0.0222" y="-1" relative="1" as="geometry">
            <mxPoint x="-15" y="-36" as="offset" />
          </mxGeometry>
        </mxCell>
        <mxCell id="x0KAO7lvC7ucfdSOhE5J-22" value="" style="endArrow=none;html=1;rounded=0;entryX=0;entryY=0.5;entryDx=0;entryDy=0;" edge="1" parent="1" target="x0KAO7lvC7ucfdSOhE5J-5">
          <mxGeometry width="50" height="50" relative="1" as="geometry">
            <mxPoint x="60" y="390" as="sourcePoint" />
            <mxPoint x="310" y="240" as="targetPoint" />
          </mxGeometry>
        </mxCell>
        <mxCell id="x0KAO7lvC7ucfdSOhE5J-23" value="0..*" style="edgeLabel;html=1;align=center;verticalAlign=middle;resizable=0;points=[];" vertex="1" connectable="0" parent="x0KAO7lvC7ucfdSOhE5J-22">
          <mxGeometry x="0.7111" y="-1" relative="1" as="geometry">
            <mxPoint x="16" y="-11" as="offset" />
          </mxGeometry>
        </mxCell>
        <mxCell id="x0KAO7lvC7ucfdSOhE5J-24" value="" style="endArrow=none;html=1;rounded=0;entryX=0;entryY=0.5;entryDx=0;entryDy=0;exitX=1;exitY=0.5;exitDx=0;exitDy=0;" edge="1" parent="1" source="x0KAO7lvC7ucfdSOhE5J-2" target="x0KAO7lvC7ucfdSOhE5J-4">
          <mxGeometry width="50" height="50" relative="1" as="geometry">
            <mxPoint x="180" y="440" as="sourcePoint" />
            <mxPoint x="360" y="440" as="targetPoint" />
          </mxGeometry>
        </mxCell>
        <mxCell id="x0KAO7lvC7ucfdSOhE5J-25" value="1" style="edgeLabel;html=1;align=center;verticalAlign=middle;resizable=0;points=[];" vertex="1" connectable="0" parent="x0KAO7lvC7ucfdSOhE5J-24">
          <mxGeometry x="0.7111" y="-1" relative="1" as="geometry">
            <mxPoint x="11" y="-11" as="offset" />
          </mxGeometry>
        </mxCell>
        <mxCell id="x0KAO7lvC7ucfdSOhE5J-29" value="1" style="edgeLabel;html=1;align=center;verticalAlign=middle;resizable=0;points=[];" vertex="1" connectable="0" parent="x0KAO7lvC7ucfdSOhE5J-24">
          <mxGeometry x="-0.6071" y="1" relative="1" as="geometry">
            <mxPoint x="-18" y="-9" as="offset" />
          </mxGeometry>
        </mxCell>
        <mxCell id="x0KAO7lvC7ucfdSOhE5J-30" value="" style="endArrow=none;html=1;rounded=0;entryX=0.442;entryY=1.017;entryDx=0;entryDy=0;entryPerimeter=0;" edge="1" parent="1">
          <mxGeometry width="50" height="50" relative="1" as="geometry">
            <mxPoint x="300.00000000000006" y="510" as="sourcePoint" />
            <mxPoint x="299.54" y="420" as="targetPoint" />
          </mxGeometry>
        </mxCell>
        <mxCell id="x0KAO7lvC7ucfdSOhE5J-31" value="1" style="edgeLabel;html=1;align=center;verticalAlign=middle;resizable=0;points=[];" vertex="1" connectable="0" parent="x0KAO7lvC7ucfdSOhE5J-30">
          <mxGeometry x="-0.0222" y="-1" relative="1" as="geometry">
            <mxPoint x="-15" y="-36" as="offset" />
          </mxGeometry>
        </mxCell>
        <mxCell id="x0KAO7lvC7ucfdSOhE5J-32" value="" style="endArrow=none;html=1;rounded=0;entryX=0;entryY=0.5;entryDx=0;entryDy=0;" edge="1" parent="1">
          <mxGeometry width="50" height="50" relative="1" as="geometry">
            <mxPoint x="300.00000000000006" y="510" as="sourcePoint" />
            <mxPoint x="480.00000000000006" y="510" as="targetPoint" />
          </mxGeometry>
        </mxCell>
        <mxCell id="x0KAO7lvC7ucfdSOhE5J-33" value="0..*" style="edgeLabel;html=1;align=center;verticalAlign=middle;resizable=0;points=[];" vertex="1" connectable="0" parent="x0KAO7lvC7ucfdSOhE5J-32">
          <mxGeometry x="0.7111" y="-1" relative="1" as="geometry">
            <mxPoint x="16" y="-11" as="offset" />
          </mxGeometry>
        </mxCell>
        <mxCell id="x0KAO7lvC7ucfdSOhE5J-34" value="" style="endArrow=none;html=1;rounded=0;entryX=0;entryY=0.5;entryDx=0;entryDy=0;exitX=1;exitY=0.5;exitDx=0;exitDy=0;" edge="1" parent="1">
          <mxGeometry width="50" height="50" relative="1" as="geometry">
            <mxPoint x="360" y="389.65999999999997" as="sourcePoint" />
            <mxPoint x="480" y="389.65999999999997" as="targetPoint" />
          </mxGeometry>
        </mxCell>
        <mxCell id="x0KAO7lvC7ucfdSOhE5J-35" value="0..*" style="edgeLabel;html=1;align=center;verticalAlign=middle;resizable=0;points=[];" vertex="1" connectable="0" parent="x0KAO7lvC7ucfdSOhE5J-34">
          <mxGeometry x="0.7111" y="-1" relative="1" as="geometry">
            <mxPoint x="7" y="-11" as="offset" />
          </mxGeometry>
        </mxCell>
        <mxCell id="x0KAO7lvC7ucfdSOhE5J-36" value="1" style="edgeLabel;html=1;align=center;verticalAlign=middle;resizable=0;points=[];" vertex="1" connectable="0" parent="x0KAO7lvC7ucfdSOhE5J-34">
          <mxGeometry x="-0.6071" y="1" relative="1" as="geometry">
            <mxPoint x="-18" y="-9" as="offset" />
          </mxGeometry>
        </mxCell>
        <mxCell id="x0KAO7lvC7ucfdSOhE5J-37" value="" style="endArrow=none;html=1;rounded=0;entryX=0.5;entryY=1;entryDx=0;entryDy=0;exitX=0.5;exitY=0;exitDx=0;exitDy=0;" edge="1" parent="1" source="x0KAO7lvC7ucfdSOhE5J-7" target="x0KAO7lvC7ucfdSOhE5J-6">
          <mxGeometry width="50" height="50" relative="1" as="geometry">
            <mxPoint x="90.46000000000004" y="480" as="sourcePoint" />
            <mxPoint x="90" y="390" as="targetPoint" />
          </mxGeometry>
        </mxCell>
        <mxCell id="x0KAO7lvC7ucfdSOhE5J-38" value="0..*" style="edgeLabel;html=1;align=center;verticalAlign=middle;resizable=0;points=[];" vertex="1" connectable="0" parent="x0KAO7lvC7ucfdSOhE5J-37">
          <mxGeometry x="-0.0222" y="-1" relative="1" as="geometry">
            <mxPoint x="-11" y="-20" as="offset" />
          </mxGeometry>
        </mxCell>
        <mxCell id="x0KAO7lvC7ucfdSOhE5J-39" value="1" style="edgeLabel;html=1;align=center;verticalAlign=middle;resizable=0;points=[];" vertex="1" connectable="0" parent="x0KAO7lvC7ucfdSOhE5J-37">
          <mxGeometry x="-0.6402" relative="1" as="geometry">
            <mxPoint x="-10" as="offset" />
          </mxGeometry>
        </mxCell>
      </root>
    </mxGraphModel>
  </diagram>
</mxfile>
